<?xml version="1.0" encoding="utf-8"?>
<!-- Generator: Adobe Adobe Illustrator 24.2.0, SVG Export Plug-In . SVG Version: 6.00 Build 0)  -->
<svg version="1.1" id="Layer_1" xmlns="http://www.w3.org/2000/svg" xmlns:xlink="http://www.w3.org/1999/xlink" x="0px" y="0px"
	 width="595.28px" height="53px" viewBox="0 0 595.28 53" style="enable-background:new 0 0 595.28 53;" xml:space="preserve">
<style type="text/css">
	.st0{fill:#29ABE2;}
	.st1{fill:#004573;}
</style>
<g id="Top_Graphics_1_">
	<polygon class="st0" points="297.43,0 149.06,0 149.04,39.71 297.55,20.42 297.33,20.39 	"/>
	<polygon class="st1" points="149.01,0 0.1,0 0,20.41 149.04,39.76 149.04,39.71 149.04,39.71 	"/>
	<polygon class="st1" points="149.01,0 149.04,39.71 149.04,39.71 149.06,0 	"/>
	<polygon class="st0" points="446.37,39.69 595.28,20.34 595.18,0 446.39,0 	"/>
	<polygon class="st1" points="446.34,0 297.85,0 297.95,20.36 297.55,20.42 446.37,39.73 446.37,39.69 446.37,39.69 	"/>
	<polygon class="st1" points="297.85,0 297.43,0 297.33,20.39 297.55,20.42 297.95,20.36 	"/>
	<polygon class="st1" points="446.34,0 446.37,39.69 446.37,39.69 446.39,0 	"/>
</g>
</svg>
