<?xml version="1.0" encoding="utf-8"?>
<!-- Generator: Adobe Adobe Illustrator 24.2.0, SVG Export Plug-In . SVG Version: 6.00 Build 0)  -->
<svg version="1.1" id="Layer_1" xmlns="http://www.w3.org/2000/svg" xmlns:xlink="http://www.w3.org/1999/xlink" x="0px" y="0px"
	 width="640px" height="480px" viewBox="0 0 640 480" style="enable-background:new 0 0 640 480;" xml:space="preserve">
<style type="text/css">
	.st0{fill:#29ABE2;}
	.st1{fill:#004573;}
</style>
<g id="Barker_and_Grant">
	<g>
		<path id="B" class="st0" d="M151.2,232.81h-20.43v-53.57c0-0.16-1.04-4.47-1.11-4.87h20.76c9.18,0,19.08,2.64,19.08,13.65
			c0,6.86-5.35,11.98-11.9,12.93c7.83,1.28,14.61,7.27,14.61,15.65C172.21,228.58,161.51,232.81,151.2,232.81z M149.77,182.28h-7.99
			v14.93h8.22c4.47,0,7.9-3.03,7.9-7.67C157.92,184.43,154.49,182.28,149.77,182.28z M148.02,205.11h-6.23v19.8h8.7
			c5.91,0,10.14-3.52,10.14-9.58C160.63,208.14,154.4,205.11,148.02,205.11z"/>
		<path id="A_1_" class="st0" d="M207.09,216.05h-17.24l-5.99,16.77h-9.26l19.03-53.78l-0.84-4.66h11.19l20.68,58.44h-11.83
			L207.09,216.05z M198.38,188.27c-1.83,6.79-3.75,13.34-5.83,19.96h11.9C202.3,201.6,200.23,194.97,198.38,188.27z"/>
		<path id="A" class="st0" d="M391.47,288.31h-17.24l-5.99,16.77h-9.26l19.03-53.78l-0.84-4.66h11.19l20.68,58.44h-11.82
			L391.47,288.31z M382.78,260.54c-1.83,6.79-3.75,13.34-5.83,19.96h11.9C386.69,273.86,384.61,267.24,382.78,260.54z"/>
		<path id="R_2_" class="st0" d="M241.25,206.78h-0.23v26.03h-10.93v-53.57c0-0.16-1.04-4.47-1.2-4.87h20.04
			c10.61,0,20.12,3.83,19.72,15.96c-0.46,13.88-8.07,14.83-14.53,16.43l19.96,26.03h-12.46L241.25,206.78z M247.88,182.36h-6.86
			v16.61h5.11c6.23,0,10.93-1.92,10.93-8.71C257.05,184.99,252.83,182.36,247.88,182.36z"/>
		<path id="R_1_" class="st0" d="M374.79,206.78h-0.23v26.03h-10.93v-53.57c0-0.16-1.04-4.47-1.2-4.87h20.04
			c10.61,0,20.12,3.83,19.72,15.96c-0.46,13.88-8.07,14.83-14.53,16.43l19.96,26.03h-12.46L374.79,206.78z M381.42,182.36h-6.86
			v16.61h5.11c6.23,0,10.93-1.92,10.93-8.71C390.6,184.99,386.37,182.36,381.42,182.36z"/>
		<path id="R" class="st0" d="M326.17,279.3h-0.23v26.03h-10.93v-53.57c0-0.16-1.04-4.47-1.2-4.87h20.04
			c10.61,0,20.12,3.83,19.72,15.96c-0.46,13.88-8.07,14.83-14.53,16.43L359,305.31h-12.46L326.17,279.3z M332.8,254.87h-6.86v16.61
			h5.11c6.23,0,10.93-1.92,10.93-8.71C341.99,257.5,337.75,254.87,332.8,254.87z"/>
		<path id="K" class="st0" d="M288.27,203.19v29.62h-11.02v-53.57c0-0.16-1.04-4.47-1.12-4.87h12.14v26.1l19.48-26.1h10.22
			l-19,25.55l20.68,32.89h-12.77L288.27,203.19z"/>
		<path id="E" class="st0" d="M323.87,179.24l-1.2-4.87h36.72v7.9h-24.59v16.52h18.84v7.9h-18.84v18.2h24.59v7.9h-35.53V179.24z"/>
		<path id="G" class="st0" d="M298.64,299.09c-5.26,4.87-10.06,6.86-17.4,6.86c-17.32,0-25.87-13.25-25.87-29.54
			c0-18.28,10.61-30.74,29.21-30.74c6.23,0,15.73,1.76,20.52,6.3l-5.83,6.55c-5.11-3.75-7.9-5.35-14.69-5.35
			c-13.25,0-17.65,10.94-17.65,22.51c0,9.82,4.39,22.59,16.12,22.59c7.77,0,12.04-4.27,12.04-12.29l0.17-5.51h-10.89l0.21-6.55
			h22.19c-0.08,4.87-0.16,9.73-0.16,14.69c0,5.97-0.43,10.99-0.43,16.45h-7.32L298.64,299.09z"/>
		<path id="N" class="st0" d="M424.68,265.4c-1.11-1.76-2.31-3.59-3.35-5.35c0.16,1.76,0.48,3.59,0.48,5.35v39.68h-8.87v-53.49
			c0-0.16-1.04-4.47-1.11-4.87h13.09l23,34.97c1.2,1.76,2.24,3.52,3.27,5.26c-0.16-1.99-0.48-4.15-0.48-6.14v-34.09h8.87v58.76
			h-8.62L424.68,265.4z"/>
		<path id="_x3C_T" class="st0" d="M493.33,305.08h-11.42v-50.54h-16.21v-7.9h44.06v7.9h-16.45L493.33,305.08L493.33,305.08z"/>
		<g id="GRAPHICS">
			<polygon class="st1" points="490.9,219.44 490.9,200.06 487.44,196.6 487.44,196.54 464.94,174.04 451.2,187.79 496.59,233.18 
				510.31,219.46 510.29,219.44 			"/>
			<polygon class="st1" points="510.34,219.44 510.34,219.44 510.29,219.44 510.31,219.46 			"/>
			<polygon class="st1" points="506.88,213.58 510.34,217.04 510.34,174.14 490.9,174.14 490.9,197.6 506.44,213.14 			"/>
			<polygon class="st1" points="506.44,215.59 490.9,200.06 490.9,219.44 510.29,219.44 506.88,216.03 			"/>
			
				<rect x="420.07" y="201.31" transform="matrix(0.7071 -0.7071 0.7071 0.7071 -19.8859 374.0462)" class="st0" width="43" height="19.43"/>
		</g>
	</g>
</g>
</svg>
